<svg width="745" height="525" viewBox="0 0 745 525" fill="none" xmlns="http://www.w3.org/2000/svg">
<path d="M470.065 64.25C596.755 108.504 689.835 226.61 695.465 368.83C696.878 404.54 692.654 439.175 683.622 471.87L682.557 471.508C691.469 439.289 695.534 405.12 693.957 369.868C693.613 362.193 692.99 354.596 692.132 347.069C666.16 351.248 639.734 353.922 612.938 355.079C610.49 384.902 604.915 414.187 596.69 442.334L595.921 442.073C604.119 414.048 609.568 384.877 611.831 355.132C589.853 356.045 567.622 355.929 545.207 354.706C530.215 353.889 515.381 352.585 500.68 350.831C496.365 368.96 491.405 386.958 485.851 404.673L485.407 404.523C490.953 386.843 495.905 368.863 500.176 350.76C453.954 345.21 409.24 335.113 366.476 320.941L343.949 384.907L365.411 320.579C323.681 306.674 283.798 288.904 246.181 267.69C239.137 283.493 232.511 299.811 226.39 316.512L225.946 316.361C232.078 299.635 238.713 283.287 245.737 267.44C215.453 250.332 186.627 231.006 159.483 209.682C145.472 232.056 133.343 256.178 123.481 281.545L122.652 281.263C132.565 255.785 144.672 231.532 158.627 208.995C140.255 194.515 122.642 179.119 105.876 162.885C81.7065 190.314 63.9 220.757 50 255L48.5 256C96.714 137.33 209.483 51.1763 345.803 45.7863C380.102 44.429 413.395 48.2591 444.949 56.5693C447.65 57.2123 450.324 57.9121 452.981 58.6713C455.036 59.1646 457.057 59.7791 459.028 60.495C459.185 60.5516 459.335 60.627 459.491 60.6854C460.897 61.1435 462.311 61.5927 463.703 62.0835C463.978 62.1802 464.247 62.2963 464.521 62.3945C466.37 63.0044 468.229 63.6039 470.064 64.245L470.065 64.25ZM458.866 66.3197C458.06 66.0648 457.257 65.8136 456.449 65.5645L442.855 104.116C462.906 110.573 483.112 115.566 503.356 119.162C493.284 92.2455 478.144 73.9847 458.866 66.3197ZM451.092 63.9425C450.602 63.8002 450.103 63.6788 449.612 63.5386C435.674 60.6028 419.906 62.6661 402.552 70.4207C396.399 73.1705 390.22 76.5788 384.023 80.5617C400.654 88.5893 417.924 95.7107 435.821 101.793C436.613 102.062 437.406 102.303 438.198 102.567L451.091 63.9434L451.092 63.9425ZM481.936 75.6435C492.297 86.2305 500.697 101.114 506.851 119.755C519.705 121.935 532.587 123.545 545.433 124.613C527.163 103.852 505.759 87.2625 481.936 75.6435ZM425.707 58.4185C407.272 55.8043 387.962 55.8044 367.993 58.677C361.839 59.5623 355.731 60.7254 349.661 62.1185C359.757 68.1076 370.139 73.7545 380.791 78.9995C388.548 73.5779 396.312 69.0727 404.003 65.5655C411.544 62.1269 418.784 59.7607 425.706 58.4179L425.707 58.4185ZM515.157 89.8685C528.429 99.8905 540.659 111.692 551.636 125.102C557.73 125.526 563.804 125.811 569.883 125.989C552.913 112.274 534.585 100.154 515.157 89.8685ZM386.927 51.9085C373.018 50.6646 358.892 50.2311 344.588 50.7244C340.515 50.8649 336.451 51.0934 332.419 51.3753C336.372 53.9656 340.375 56.51 344.421 58.985C352.638 56.7902 360.954 55.0401 369.325 53.783C375.252 52.8929 381.123 52.2951 386.927 51.9085ZM575.197 130.368C568.541 130.26 561.869 130.011 555.19 129.609C567.696 145.685 578.499 163.906 587.319 183.96C599.688 183.498 611.985 182.586 624.186 181.239C609.678 162.629 593.247 145.569 575.198 130.368L575.197 130.368ZM325.437 51.9375C297.546 54.463 270.744 60.3381 245.39 69.1625C254.403 76.5578 263.69 83.6855 273.233 90.4715C294.117 77.3865 316.091 67.2325 338.778 60.5625C334.274 57.7554 329.821 54.8859 325.437 51.9375ZM549.407 129.259C549.401 129.251 549.383 129.256 549.378 129.249C535.705 128.252 522.002 126.624 508.296 124.367C513.274 140.91 516.592 160.182 518.082 181.82C540.159 184.003 562.119 184.733 583.855 184.068C574.374 163.716 562.801 145.331 549.407 129.259ZM343.667 63.5755C320.172 69.6307 297.411 79.3855 275.817 92.3055C293.372 104.624 311.805 115.851 331.022 125.949C346.059 108.155 361.453 93.2325 376.864 81.8525C365.478 76.1818 354.403 70.0815 343.667 63.5755ZM504.997 123.803C483.765 120.147 462.544 114.954 441.466 108.157L422.135 163.011C437.74 167.649 453.703 171.604 470.016 174.79C485.483 177.812 500.942 180.074 516.334 181.65C514.469 159.671 510.606 140.26 504.998 123.803L504.997 123.803ZM379.877 83.3025C363.974 94.1945 348.064 108.931 332.536 126.758C359.658 140.892 388.346 152.692 418.427 161.883L436.871 106.628C436.089 106.367 435.306 106.13 434.524 105.864C415.594 99.4318 397.375 91.8605 379.877 83.3025ZM625.847 183.383C613.398 184.694 600.839 185.539 588.21 185.941C598.437 209.687 605.879 235.957 610.16 264.227C629.987 263.161 649.652 261.079 669.094 258.047C657.928 231.198 643.311 206.159 625.847 183.383ZM243.377 69.8625C219.014 78.5181 196.04 89.9055 174.776 103.618C187.378 115.653 200.56 127.144 214.264 138.06C232.139 120.023 251.44 104.299 271.812 91.3735C262.076 84.5072 252.574 77.3465 243.377 69.8625ZM584.777 186.032C562.784 186.587 540.553 185.76 518.195 183.443C519.707 206.942 519.079 233.182 516.121 261.718C547.045 265.046 577.822 265.874 608.238 264.337C603.569 235.988 595.583 209.71 584.777 186.032ZM274.367 93.1685C253.577 105.772 233.912 121.3 215.716 139.217C238.155 156.976 262.006 173.19 287.191 187.628C300.891 165.089 315.329 144.651 330.135 127.003C310.722 116.855 292.122 105.53 274.368 93.1685H274.367ZM516.447 183.245C501.515 181.646 486.525 179.425 471.512 176.492C454.531 173.174 437.936 169.041 421.698 164.186L396.388 236.052C409.639 240.367 423.128 244.245 436.868 247.66C462.972 254.149 489.149 258.759 515.203 261.604C517.968 232.952 518.324 206.669 516.447 183.245ZM331.627 127.771C316.568 145.191 301.882 165.528 287.974 188.058C321.109 206.987 356.511 222.878 393.924 235.246L418.02 163.068C387.802 153.789 358.929 141.931 331.626 127.771H331.627ZM670.267 260.992C650.577 263.922 630.645 265.907 610.554 266.842C613.933 290.335 615.131 315.186 613.869 341.107C613.676 345.072 613.413 349.013 613.109 352.961C639.741 351.657 666.027 348.781 691.851 344.434C688.289 315.27 680.907 287.288 670.267 260.992ZM172.917 104.802C148.945 120.487 127.221 139.177 108.222 160.282C124.737 176.545 142.106 191.949 160.222 206.467C175.742 181.79 193.469 159.192 212.928 139.355C199.049 128.407 185.695 116.867 172.917 104.802ZM608.647 266.912C578.046 268.237 547.059 267.192 515.921 263.657C514.471 277.212 512.506 291.273 509.985 305.8C507.472 320.283 504.482 334.774 501.086 349.181C514.904 350.795 528.862 351.975 542.946 352.744C566.177 354.011 589.2 354.072 611.972 352.995C612.226 349.416 612.467 345.822 612.628 342.227C613.801 315.908 612.381 290.696 608.647 266.912ZM214.377 140.532C194.668 160.143 176.725 182.561 161.081 207.146C187.998 228.646 216.589 248.132 246.68 265.373C258.871 238.084 272.242 212.356 286.435 188.878C261.083 174.423 237.013 158.273 214.377 140.532ZM515.037 263.552C489.584 260.623 464.049 256.044 438.52 249.698C424.058 246.103 409.867 241.974 395.929 237.404L367.062 319.35C409.725 333.588 454.382 343.675 500.582 349.108C503.845 335.138 506.694 321.097 509.097 307.048C511.667 292.026 513.636 277.517 515.032 263.552H515.037ZM287.217 189.311C272.882 212.663 259.386 238.344 247.127 265.626C284.583 287.05 324.32 304.998 365.967 318.978L393.462 236.6C355.998 224.137 320.489 208.217 287.212 189.31L287.217 189.311Z" fill="white"/>
<path d="M48.0312 364V254.909H124.736V278.773H77.6477V297.523H120.048V321.386H77.6477V364H48.0312ZM165.245 254.909V364H135.629V254.909H165.245ZM273.67 254.909V364H248.955L209.537 306.685H208.898V364H179.281V254.909H204.423L243.202 312.011H244.054V254.909H273.67ZM284.697 278.773V254.909H379.512V278.773H346.7V364H317.509V278.773H284.697ZM390.658 364V254.909H469.28V278.773H420.275V297.523H465.232V321.386H420.275V340.136H469.067V364H390.658ZM585.815 295.818H555.773C555.56 293.332 554.991 291.077 554.068 289.053C553.18 287.029 551.938 285.289 550.339 283.833C548.777 282.342 546.877 281.205 544.64 280.424C542.403 279.607 539.864 279.199 537.023 279.199C532.051 279.199 527.843 280.406 524.398 282.821C520.989 285.236 518.397 288.698 516.621 293.208C514.881 297.718 514.011 303.134 514.011 309.455C514.011 316.131 514.899 321.724 516.675 326.234C518.486 330.708 521.096 334.082 524.505 336.354C527.914 338.592 532.016 339.71 536.81 339.71C539.544 339.71 541.994 339.373 544.161 338.698C546.327 337.988 548.209 336.976 549.807 335.662C551.405 334.348 552.701 332.768 553.695 330.921C554.725 329.039 555.418 326.926 555.773 324.582L585.815 324.795C585.46 329.412 584.164 334.117 581.927 338.911C579.69 343.67 576.511 348.073 572.392 352.121C568.308 356.134 563.248 359.366 557.211 361.816C551.174 364.266 544.161 365.491 536.17 365.491C526.156 365.491 517.172 363.343 509.217 359.046C501.298 354.749 495.031 348.428 490.414 340.083C485.833 331.738 483.543 321.528 483.543 309.455C483.543 297.31 485.886 287.082 490.574 278.773C495.261 270.428 501.582 264.124 509.537 259.863C517.491 255.566 526.369 253.418 536.17 253.418C543.06 253.418 549.398 254.359 555.187 256.241C560.975 258.123 566.053 260.875 570.421 264.497C574.789 268.084 578.305 272.505 580.968 277.761C583.631 283.016 585.247 289.036 585.815 295.818ZM599.252 364V254.909H628.868V297.523H668.073V254.909H697.689V364H668.073V321.386H628.868V364H599.252Z" fill="white"/>
</svg>
